<?xml version="1.0" standalone="no"?>
<!DOCTYPE svg PUBLIC "-//W3C//DTD SVG 20010904//EN"
 "http://www.w3.org/TR/2001/REC-SVG-20010904/DTD/svg10.dtd">
<svg version="1.0" xmlns="http://www.w3.org/2000/svg"
 width="512.000000pt" height="512.000000pt" viewBox="0 0 512.000000 512.000000"
 preserveAspectRatio="xMidYMid meet">
<metadata>
Created by potrace 1.14, written by Peter Selinger 2001-2017
</metadata>
<g transform="translate(0.000000,512.000000) scale(0.100000,-0.100000)"
fill="#000000" stroke="none">
<path d="M684 5101 c-70 -32 -106 -97 -97 -177 4 -37 45 -114 61 -114 4 0 21
-13 37 -28 17 -15 119 -101 227 -190 l198 -163 -98 -81 c-141 -118 -277 -258
-403 -414 -50 -64 -176 -265 -227 -364 -81 -159 -124 -270 -192 -495 -12 -40
-46 -211 -55 -275 -27 -191 -27 -556 -1 -696 2 -11 7 -40 10 -66 8 -56 39
-187 67 -283 86 -291 247 -599 437 -837 131 -164 353 -371 512 -478 12 -8 40
-27 61 -42 21 -16 41 -28 44 -28 3 0 22 -11 43 -23 260 -164 597 -280 972
-332 92 -13 445 -13 554 1 471 58 887 229 1246 514 89 70 107 86 211 191 320
320 537 703 648 1144 28 112 39 178 60 350 9 74 7 464 -3 504 -3 13 -8 49 -12
80 -6 57 -9 76 -19 121 -3 14 -7 34 -9 45 -10 50 -39 157 -64 230 -14 44 -27
82 -27 85 -11 43 -81 201 -133 300 -323 620 -898 1075 -1568 1244 -111 28
-234 51 -333 62 -83 10 -434 12 -506 3 -192 -23 -195 -24 -325 -55 -126 -29
-236 -64 -349 -110 -84 -34 -100 -33 -101 2 0 21 -46 54 -81 58 -42 4 -80 -14
-111 -54 l-24 -31 -65 51 c-35 29 -84 69 -109 90 -344 290 -374 307 -476 261z"/>
</g>
</svg>
