<?xml version="1.0" standalone="no"?>
<!DOCTYPE svg PUBLIC "-//W3C//DTD SVG 20010904//EN"
 "http://www.w3.org/TR/2001/REC-SVG-20010904/DTD/svg10.dtd">
<svg version="1.0" xmlns="http://www.w3.org/2000/svg"
 width="512.000000pt" height="512.000000pt" viewBox="0 0 512.000000 512.000000"
 preserveAspectRatio="xMidYMid meet">
<metadata>
Created by potrace 1.14, written by Peter Selinger 2001-2017
</metadata>
<g transform="translate(0.000000,512.000000) scale(0.100000,-0.100000)"
fill="#000000" stroke="none">
<path d="M3370 5109 c-156 -19 -272 -45 -404 -91 -514 -176 -930 -575 -1125
-1078 -37 -93 -74 -212 -87 -273 -9 -46 -33 -193 -36 -222 l-3 -30 -135 1
c-154 0 -217 7 -333 34 -387 90 -711 311 -935 638 -60 87 -90 112 -142 119
-67 9 -137 -33 -161 -95 -12 -32 -10 -637 2 -742 59 -496 294 -927 674 -1239
245 -201 519 -327 865 -396 8 -2 44 -6 80 -10 36 -4 69 -9 73 -12 8 -5 2 -263
-8 -318 -44 -256 -95 -401 -207 -592 -114 -194 -304 -391 -494 -511 -102 -64
-123 -171 -48 -246 25 -25 47 -37 79 -42 48 -7 728 0 760 9 11 2 40 8 65 12
25 3 90 18 144 31 584 145 1066 565 1284 1119 22 55 43 114 47 130 5 17 10 35
11 40 14 43 45 179 49 215 3 25 7 54 10 65 2 11 4 35 4 54 l1 34 158 -6 c175
-7 199 -10 326 -39 304 -70 593 -243 801 -479 66 -74 80 -93 125 -160 52 -77
65 -91 107 -108 73 -30 166 13 192 89 14 41 14 617 0 743 -89 794 -682 1449
-1465 1617 -107 23 -138 27 -198 29 l-39 1 6 158 c3 86 8 166 10 177 3 11 8
40 12 65 9 61 41 180 71 265 107 299 340 590 611 763 83 53 115 144 74 212
-24 39 -61 68 -98 75 -43 8 -651 3 -723 -6z m245 -310 c-11 -13 -30 -35 -43
-49 -100 -109 -292 -410 -292 -457 0 -7 -4 -13 -10 -13 -5 0 -10 -8 -10 -18 0
-10 -4 -22 -8 -28 -8 -8 -66 -175 -77 -219 -12 -49 -44 -204 -50 -240 -3 -22
-9 -151 -12 -286 -5 -232 -4 -249 15 -292 30 -67 67 -83 219 -91 67 -3 128 -9
135 -11 7 -3 27 -7 43 -9 171 -21 416 -118 592 -235 419 -276 678 -734 699
-1236 6 -125 5 -129 -12 -115 -11 8 -21 18 -24 21 -3 3 -36 31 -74 63 -142
120 -365 249 -534 310 -91 32 -238 74 -289 82 -21 3 -45 7 -53 9 -53 14 -166
20 -380 20 -242 0 -245 0 -276 -24 -47 -34 -62 -81 -68 -207 -3 -62 -8 -118
-10 -125 -3 -8 -7 -33 -10 -56 -28 -225 -167 -523 -341 -733 -280 -336 -689
-537 -1134 -557 l-134 -6 77 89 c83 95 181 238 238 345 66 123 147 344 174
474 27 128 36 229 40 445 5 228 4 247 -14 280 -31 56 -80 77 -202 84 -238 13
-414 58 -620 159 -47 23 -86 45 -88 49 -2 4 -8 8 -13 8 -17 0 -129 79 -216
151 -330 277 -529 682 -550 1124 l-6 129 44 -37 c299 -255 569 -389 924 -457
98 -19 123 -21 366 -27 234 -5 248 -5 293 15 63 28 82 72 90 208 18 334 132
638 335 894 47 59 183 196 246 247 76 62 211 146 305 191 94 45 271 105 340
117 25 4 54 9 65 11 11 2 43 7 70 10 28 4 51 7 52 8 1 1 49 3 105 5 l102 2
-19 -22z"/>
<path d="M2430 3094 c-342 -90 -514 -458 -363 -773 51 -105 151 -206 253 -253
227 -106 472 -61 641 119 209 223 195 567 -32 778 -132 121 -332 173 -499 129z
m213 -300 c105 -36 176 -149 163 -260 -24 -208 -269 -296 -419 -150 -70 67
-92 154 -63 249 18 60 49 102 99 134 73 46 140 54 220 27z"/>
<path d="M1463 4524 c-175 -92 -490 -342 -546 -434 -68 -109 26 -244 156 -223
29 4 57 23 126 87 48 44 104 96 125 115 35 31 176 126 303 206 66 42 92 83 89
144 -2 56 -24 94 -69 121 -50 31 -104 26 -184 -16z"/>
<path d="M3965 4217 c-58 -19 -104 -79 -100 -132 1 -11 2 -32 3 -47 1 -19 24
-51 76 -105 41 -43 95 -103 121 -133 52 -61 184 -256 210 -311 10 -20 36 -48
59 -63 80 -53 187 -15 219 77 13 40 13 49 -2 93 -41 120 -216 363 -386 540
-83 85 -129 104 -200 81z"/>
<path d="M640 1703 c-83 -43 -102 -130 -49 -229 109 -209 382 -543 466 -571
15 -5 38 -8 51 -7 12 1 31 2 41 3 26 1 80 48 93 80 33 84 17 122 -107 254
-104 111 -203 243 -261 349 -52 94 -89 127 -150 134 -36 4 -58 0 -84 -13z"/>
<path d="M4018 1242 c-20 -9 -74 -53 -120 -97 -46 -44 -111 -100 -144 -125
-32 -25 -64 -49 -70 -55 -6 -5 -63 -41 -127 -80 -133 -80 -156 -109 -153 -187
3 -79 66 -138 147 -138 124 0 637 390 668 507 6 22 8 54 5 71 -9 45 -59 100
-102 112 -49 13 -61 13 -104 -8z"/>
</g>
</svg>
