<?xml version="1.0" standalone="no"?>
<!DOCTYPE svg PUBLIC "-//W3C//DTD SVG 20010904//EN"
 "http://www.w3.org/TR/2001/REC-SVG-20010904/DTD/svg10.dtd">
<svg version="1.0" xmlns="http://www.w3.org/2000/svg"
 width="512.000000pt" height="512.000000pt" viewBox="0 0 512.000000 512.000000"
 preserveAspectRatio="xMidYMid meet">
<metadata>
Created by potrace 1.14, written by Peter Selinger 2001-2017
</metadata>
<g transform="translate(0.000000,512.000000) scale(0.100000,-0.100000)"
fill="#000000" stroke="none">
<path d="M3510 5102 c-203 -54 -355 -243 -359 -445 -1 -26 -6 -39 -18 -44 -44
-15 -208 -96 -211 -104 -2 -5 -9 -9 -15 -9 -7 0 -29 -13 -50 -29 l-38 -29 -83
34 c-326 133 -674 -106 -665 -456 3 -110 32 -194 97 -280 18 -25 40 -49 48
-53 8 -4 14 -12 14 -18 0 -9 -68 -167 -105 -244 -8 -16 -21 -48 -28 -70 l-14
-40 -61 -1 c-33 -1 -81 -7 -105 -14 -39 -10 -49 -10 -68 4 -38 26 -72 20 -122
-24 -97 -86 -148 -208 -143 -343 4 -120 40 -202 126 -287 36 -36 85 -74 108
-84 50 -23 49 -5 7 -181 -21 -89 -23 -98 -24 -109 -1 -4 -9 -5 -18 -1 -17 6
-81 17 -113 19 -8 0 -43 -3 -77 -7 -169 -19 -321 -160 -363 -336 -13 -56 -7
-197 9 -229 6 -9 20 -38 32 -64 12 -25 41 -68 65 -94 24 -26 44 -50 44 -54 0
-4 -25 -29 -57 -56 -31 -27 -61 -53 -67 -59 -58 -52 -50 -51 -105 -11 -166
122 -398 86 -512 -80 -59 -86 -81 -203 -53 -292 7 -26 14 -50 14 -54 0 -9
-141 -90 -302 -173 -48 -25 -103 -58 -122 -75 -129 -113 -96 -325 63 -401 l46
-23 1470 -1 1470 -1 205 -58 c113 -32 219 -62 235 -67 17 -5 93 -27 170 -48
77 -21 191 -53 252 -70 186 -52 246 -51 338 6 56 35 93 90 149 218 92 212 109
250 138 314 78 171 99 232 99 290 1 104 -54 192 -148 238 -53 26 -65 27 -170
25 l-113 -2 -110 62 c-60 34 -107 64 -105 68 2 4 6 48 9 99 6 98 9 111 31 111
20 0 43 49 40 85 -11 153 -51 359 -106 537 -66 217 -69 229 -66 319 4 91 24
150 73 214 40 54 101 84 211 106 225 46 348 101 454 202 205 195 274 657 149
997 -119 329 -390 579 -750 696 -47 15 -87 28 -89 30 -1 1 -9 35 -17 74 -32
169 -170 322 -334 371 -66 19 -190 20 -260 1z"/>
</g>
</svg>
