<?xml version="1.0" standalone="no"?>
<!DOCTYPE svg PUBLIC "-//W3C//DTD SVG 20010904//EN"
 "http://www.w3.org/TR/2001/REC-SVG-20010904/DTD/svg10.dtd">
<svg version="1.0" xmlns="http://www.w3.org/2000/svg"
 width="512.000000pt" height="512.000000pt" viewBox="0 0 512.000000 512.000000"
 preserveAspectRatio="xMidYMid meet">
<metadata>
Created by potrace 1.14, written by Peter Selinger 2001-2017
</metadata>
<g transform="translate(0.000000,512.000000) scale(0.100000,-0.100000)"
fill="#000000" stroke="none">
<path d="M2419 5101 c-21 -17 -23 -27 -23 -112 l-1 -94 -69 -7 c-128 -12 -196
-24 -326 -54 -845 -196 -1521 -830 -1784 -1672 -14 -45 -28 -96 -31 -114 -3
-17 -8 -34 -10 -37 -7 -12 -45 -237 -52 -311 -15 -147 -8 -493 11 -596 2 -11
7 -40 10 -66 4 -26 15 -84 26 -130 112 -465 329 -856 660 -1189 90 -91 253
-228 330 -279 12 -8 40 -27 61 -42 21 -16 41 -28 44 -28 3 0 22 -11 43 -23
208 -132 501 -244 787 -302 170 -35 546 -53 695 -34 36 4 88 11 115 14 77 10
272 52 361 79 296 90 595 249 840 446 229 185 468 474 612 740 106 198 210
486 246 685 50 274 56 592 16 855 -63 411 -240 811 -508 1149 -92 116 -268
294 -377 380 -44 34 -87 68 -95 74 -50 39 -229 148 -324 197 -212 109 -426
183 -653 225 -127 23 -135 25 -213 31 -41 3 -77 8 -80 11 -2 2 -5 45 -5 95 -2
124 -6 128 -165 128 -100 0 -121 -3 -141 -19z"/>
</g>
</svg>
